<svg width="24" height="24" viewBox="0 0 24 24" fill="none" xmlns="http://www.w3.org/2000/svg">
<g id="Metamask">
<path id="Vector" d="M20.6437 2.67334L13.1484 8.24019L14.5345 4.95583L20.6437 2.67334Z" fill="#E2761B" stroke="#E2761B" stroke-width="0.105932" stroke-linecap="round" stroke-linejoin="round"/>
<path id="Vector_2" d="M3.34565 2.67334L10.7807 8.29292L9.46241 4.95583L3.34565 2.67334ZM17.952 15.5773L15.9558 18.6357L20.227 19.8108L21.4549 15.6451L17.952 15.5773ZM2.55469 15.6451L3.77503 19.8108L8.04621 18.6357L6.04998 15.5773L2.55469 15.6451Z" fill="#E4761B" stroke="#E4761B" stroke-width="0.105932" stroke-linecap="round" stroke-linejoin="round"/>
<path id="Vector_3" d="M7.79958 10.4071L6.60938 12.2075L10.8504 12.3958L10.6998 7.83837L7.79958 10.4071ZM16.1838 10.4071L13.2459 7.78564L13.148 12.3958L17.3815 12.2075L16.1838 10.4071ZM8.04064 18.6331L10.5868 17.3902L8.38715 15.6726L8.04064 18.6331ZM13.3966 17.3902L15.9502 18.6331L15.5962 15.6726L13.3966 17.3902Z" fill="#E4761B" stroke="#E4761B" stroke-width="0.105932" stroke-linecap="round" stroke-linejoin="round"/>
<path id="Vector_4" d="M15.9575 18.6365L13.4038 17.3936L13.6072 19.0583L13.5846 19.7589L15.9575 18.6365ZM8.04785 18.6365L10.4207 19.7589L10.4057 19.0583L10.594 17.3936L8.04785 18.6365Z" fill="#D7C1B3" stroke="#D7C1B3" stroke-width="0.105932" stroke-linecap="round" stroke-linejoin="round"/>
<path id="Vector_5" d="M10.4534 14.5764L8.3291 13.9511L9.82816 13.2656L10.4534 14.5764ZM13.5344 14.5764L14.1596 13.2656L15.6662 13.9511L13.5344 14.5764Z" fill="#233447" stroke="#233447" stroke-width="0.105932" stroke-linecap="round" stroke-linejoin="round"/>
<path id="Vector_6" d="M8.04311 18.6365L8.40469 15.5782L6.04688 15.646L8.04311 18.6365ZM15.5911 15.5782L15.9527 18.6365L17.9489 15.646L15.5911 15.5782ZM17.384 12.2109L13.1505 12.3993L13.5422 14.5763L14.1674 13.2656L15.674 13.951L17.384 12.2109ZM8.32936 13.951L9.83595 13.2656L10.4537 14.5763L10.8529 12.3993L6.61185 12.2109L8.32936 13.951Z" fill="#CD6116" stroke="#CD6116" stroke-width="0.105932" stroke-linecap="round" stroke-linejoin="round"/>
<path id="Vector_7" d="M6.61816 12.2109L8.39594 15.6761L8.33568 13.951L6.61816 12.2109ZM15.6803 13.951L15.605 15.6761L17.3903 12.2109L15.6803 13.951ZM10.8592 12.3993L10.46 14.5763L10.9571 17.145L11.0701 13.7627L10.8592 12.3993ZM13.1568 12.3993L12.9534 13.7552L13.0438 17.145L13.5485 14.5763L13.1568 12.3993Z" fill="#E4751F" stroke="#E4751F" stroke-width="0.105932" stroke-linecap="round" stroke-linejoin="round"/>
<path id="Vector_8" d="M13.5419 14.5749L13.0372 17.1437L13.3988 17.3923L15.5984 15.6748L15.6737 13.9497L13.5419 14.5749ZM8.3291 13.9497L8.38937 15.6748L10.589 17.3923L10.9506 17.1437L10.4534 14.5749L8.3291 13.9497Z" fill="#F6851B" stroke="#F6851B" stroke-width="0.105932" stroke-linecap="round" stroke-linejoin="round"/>
<path id="Vector_9" d="M13.5846 19.7582L13.6072 19.0576L13.4188 18.8919H10.5789L10.4057 19.0576L10.4207 19.7582L8.04785 18.6357L8.87648 19.3137L10.5563 20.4813H13.4414L15.1288 19.3137L15.9575 18.6357L13.5846 19.7582Z" fill="#C0AD9E" stroke="#C0AD9E" stroke-width="0.105932" stroke-linecap="round" stroke-linejoin="round"/>
<path id="Vector_10" d="M13.4044 17.3931L13.0428 17.1445H10.9562L10.5946 17.3931L10.4062 19.0579L10.5795 18.8922H13.4194L13.6078 19.0579L13.4044 17.3931Z" fill="#161616" stroke="#161616" stroke-width="0.105932" stroke-linecap="round" stroke-linejoin="round"/>
<path id="Vector_11" d="M20.9682 8.60178L21.6085 5.52833L20.6518 2.67334L13.4051 8.05187L16.1923 10.4097L20.132 11.5622L21.0058 10.5453L20.6292 10.2741L21.2318 9.72419L20.7648 9.3626L21.3674 8.90309L20.9682 8.60178ZM2.39941 5.52833L3.03972 8.60178L2.63294 8.90309L3.23557 9.3626L2.77606 9.72419L3.3787 10.2741L3.00205 10.5453L3.86834 11.5622L7.80808 10.4097L10.5953 8.05187L3.34857 2.67334L2.39941 5.52833Z" fill="#763D16" stroke="#763D16" stroke-width="0.105932" stroke-linecap="round" stroke-linejoin="round"/>
<path id="Vector_12" d="M20.1203 11.5634L16.1805 10.4109L17.3783 12.2113L15.593 15.6764L17.9433 15.6463H21.4461L20.1203 11.5634ZM7.79637 10.4109L3.85663 11.5634L2.5459 15.6463H6.04119L8.38394 15.6764L6.60616 12.2113L7.79637 10.4109ZM13.1448 12.3996L13.3934 8.05308L14.5384 4.95703H9.45362L10.5836 8.05308L10.8472 12.3996L10.9376 13.7706L10.9451 17.1454H13.0318L13.0468 13.7706L13.1448 12.3996Z" fill="#F6851B" stroke="#F6851B" stroke-width="0.105932" stroke-linecap="round" stroke-linejoin="round"/>
</g>
</svg>
