<svg xmlns="http://www.w3.org/2000/svg" width="41" height="40" viewBox="0 0 41 40" fill="none">
  <path d="M24.8591 31.19C23.5791 31.8117 22.0899 32.5475 20.5107 33.2733C19.5666 33.7158 18.5791 34.1525 17.5941 34.5533C16.9274 34.8408 16.2491 35.0975 15.5849 35.3308C14.9566 35.5525 14.3591 35.7792 13.7849 36.0067C12.7916 36.3892 11.8682 36.7725 10.9624 37.1192C9.93045 37.5276 8.87257 37.8673 7.79572 38.1358C7.40604 38.1886 7.00943 38.1505 6.63695 38.0244C6.26447 37.8983 5.92624 37.6877 5.64874 37.4091C5.37124 37.1305 5.16202 36.7914 5.03745 36.4184C4.91288 36.0454 4.87635 35.6486 4.93072 35.2592C5.17655 34.2592 5.48738 33.1758 5.84738 32.0233L5.85405 32.0175C6.14655 31.0308 6.48155 30.0175 6.82822 29.0092C7.10322 28.1958 7.39655 27.3892 7.68405 26.5992C7.86905 26.1033 8.04822 25.6125 8.23988 25.1342C8.64655 24.0817 9.06488 23.0767 9.48405 22.1083C10.1357 20.6192 10.7999 19.2258 11.4574 17.9333C15.9263 22.35 20.3935 26.7689 24.8591 31.19Z" fill="url(#paint0_radial_10_2471)"/>
  <path d="M24.8144 30.9296C26.0556 29.6884 24.1422 25.7625 20.5405 22.1609C16.9389 18.5593 13.0131 16.6458 11.7718 17.887C10.5306 19.1283 12.4441 23.0541 16.0457 26.6558C19.6473 30.2574 23.5732 32.1708 24.8144 30.9296Z" fill="url(#paint1_radial_10_2471)"/>
  <path d="M23.7325 31.51C21.89 31.51 18.82 29.725 15.8991 26.8033C12.16 23.0642 10.2825 19.0833 11.6258 17.7408C12.2925 17.0742 13.62 17.1717 15.3633 18.0208C17.3396 19.0603 19.1375 20.4084 20.6891 22.0142C24.4275 25.7533 26.305 29.7342 24.9625 31.0767C24.7969 31.2276 24.6027 31.3437 24.3915 31.4182C24.1802 31.4926 23.9561 31.5238 23.7325 31.51ZM12.8608 17.7183C12.6907 17.7062 12.5199 17.728 12.3582 17.7823C12.1966 17.8367 12.0474 17.9226 11.9191 18.035C10.905 19.0492 12.3808 22.6958 16.1925 26.5092C20.0041 30.3225 23.6525 31.7975 24.6666 30.7825C25.6808 29.7675 24.205 26.1208 20.3933 22.3083C18.8743 20.7357 17.1144 19.415 15.18 18.3958C14.4647 18.0057 13.6736 17.7746 12.8608 17.7183Z" fill="url(#paint2_linear_10_2471)"/>
  <path d="M33.831 16.6642L33.9493 18.7542L35.7385 19.8408L33.7877 20.6L33.3068 22.6367L31.9818 21.0158L29.896 21.1875L31.0285 19.4275L30.2202 17.4967L32.2443 18.0292L33.831 16.6642Z" fill="#FF7E00"/>
  <path d="M33.8173 16.6958L33.934 18.7633L35.704 19.8383L33.774 20.5892L33.2981 22.6042L31.9881 21.0008L29.9248 21.1708L31.0448 19.4292L30.2456 17.5192L32.2473 18.0467L33.8173 16.6958Z" fill="#FF8000"/>
  <path d="M33.8033 16.7283L33.9199 18.7725L35.6699 19.8358L33.7608 20.5783L33.2908 22.5708L31.9949 20.985L29.9541 21.1533L31.0616 19.4317L30.2708 17.5425L32.2516 18.0633L33.8033 16.7283Z" fill="#FF8100"/>
  <path d="M33.7901 16.76L33.9051 18.7817L35.6359 19.8333L33.7484 20.5675L33.2826 22.5383L32.0017 20.97L29.9834 21.1367L31.0784 19.4333L30.2967 17.565L32.2551 18.0808L33.7901 16.76Z" fill="#FF8300"/>
  <path d="M33.7769 16.7917L33.8902 18.7908L35.6019 19.8308L33.7352 20.5567L33.2752 22.505L32.0085 20.955L30.0127 21.1192L31.096 19.435L30.3227 17.5883L32.2594 18.0975L33.7769 16.7917Z" fill="#FF8400"/>
  <path d="M33.7632 16.8233L33.8748 18.8L35.5673 19.8283L33.7215 20.5458L33.2665 22.4725L32.014 20.9392L30.0415 21.1017L31.1123 19.4367L30.3482 17.6108L32.2623 18.115L33.7632 16.8233Z" fill="#FF8700"/>
  <path d="M33.7491 16.855L33.8608 18.8092L35.5333 19.8258L33.7091 20.535L33.2591 22.44L32.0208 20.9242L30.0708 21.085L31.1291 19.4392L30.3733 17.6333L32.2658 18.1317L33.7491 16.855Z" fill="#FF8800"/>
  <path d="M33.7358 16.8875L33.8458 18.8183L35.4991 19.8233L33.6958 20.5242L33.2516 22.4067L32.0275 20.9092L30.0991 21.0675L31.1458 19.4408L30.3991 17.6567L32.27 18.1492L33.7358 16.8875Z" fill="#FF8A00"/>
  <path d="M33.7226 16.9192L33.8309 18.8275L35.4643 19.8208L33.6826 20.5133L33.2434 22.3742L32.0343 20.8933L30.1284 21.0508L31.1626 19.4425L30.4251 17.6792L32.2734 18.1658L33.7226 16.9192Z" fill="#FF8C00"/>
  <path d="M33.7094 16.9508L33.816 18.8367L35.4302 19.8183L33.6702 20.5025L33.236 22.3408L32.041 20.8783L30.1577 21.0333L31.1802 19.445L30.4502 17.7025L32.2769 18.1833L33.7094 16.9508Z" fill="#FF8E00"/>
  <path d="M33.6949 16.9825L33.8007 18.8458L35.3957 19.815L33.6565 20.4917L33.2274 22.3083L32.0465 20.8633L30.1865 21.0167L31.1965 19.4467L30.4757 17.725L32.2807 18.2L33.6949 16.9825Z" fill="#FF9000"/>
  <path d="M33.6817 17.015L33.7867 18.855L35.3617 19.8125L33.6433 20.4808L33.22 22.275L32.0533 20.8475L30.2158 20.9992L31.2133 19.4483L30.5017 17.7475L32.2842 18.2175L33.6817 17.015Z" fill="#FF9100"/>
  <path d="M33.6684 17.0467L33.7718 18.865L35.3276 19.81L33.631 20.47L33.2118 22.2425L32.0601 20.8325L30.2451 20.9817L31.2301 19.4508L30.5268 17.7708L32.2885 18.2342L33.6684 17.0467Z" fill="#FF9300"/>
  <path d="M33.6548 17.0783L33.7564 18.8742L35.2931 19.8075L33.6173 20.4592L33.2039 22.21L32.0664 20.8167L30.2739 20.965L31.2464 19.4525L30.5523 17.7933L32.2914 18.2517L33.6548 17.0783Z" fill="#FF9500"/>
  <path d="M33.6416 17.11L33.7416 18.8833L35.2591 19.805L33.6041 20.4483L33.1966 22.1767L32.0724 20.8017L30.3032 20.9475L31.2641 19.4542L30.5782 17.8167L32.2949 18.2683L33.6416 17.11Z" fill="#FF9700"/>
  <path d="M33.6275 17.1425L33.7275 18.8925L35.225 19.8025L33.5917 20.4383L33.1884 22.1442L32.0792 20.7867L30.3325 20.9308L31.2809 19.4558L30.6042 17.8392L32.2992 18.2858L33.6275 17.1425Z" fill="#FF9900"/>
  <path d="M33.6143 17.1742L33.7126 18.9017L35.191 19.8L33.5785 20.4275L33.181 22.1108L32.086 20.7708L30.3618 20.9133L31.2977 19.4583L30.6293 17.8617L32.3026 18.3025L33.6143 17.1742Z" fill="#FF9B00"/>
  <path d="M33.6006 17.2058L33.6973 18.9108L35.1565 19.7975L33.5648 20.4167L33.1723 22.0783L32.0923 20.7558L30.3906 20.8958L31.314 19.46L30.6548 17.885L32.3065 18.32L33.6006 17.2058Z" fill="#FF9D00"/>
  <path d="M33.5874 17.2375L33.6824 18.92L35.1224 19.795L33.5524 20.4058L33.1649 22.0458L32.0991 20.7408L30.4199 20.8792L31.3308 19.4617L30.6808 17.9075L32.3099 18.3367L33.5874 17.2375Z" fill="#FF9E00"/>
  <path d="M33.5732 17.2692L33.6674 18.9292L35.0882 19.7925L33.5391 20.395L33.1574 22.0125L32.1049 20.725L30.4482 20.8617L31.3482 19.4642L30.7057 17.9308L32.3132 18.3542L33.5732 17.2692Z" fill="#FFA000"/>
  <path d="M33.56 17.3017L33.6534 18.9383L35.0542 19.79L33.5259 20.3842L33.1492 21.98L32.1117 20.71L30.4775 20.845L31.365 19.4658L30.7317 17.9533L32.3175 18.3708L33.56 17.3017Z" fill="#FFA200"/>
  <path d="M33.5468 17.3333L33.6385 18.9475L35.0202 19.7875L33.5135 20.3733L33.1418 21.9467L32.1185 20.695L30.5068 20.8275L31.3818 19.4675L30.7577 17.9758L32.321 18.3883L33.5468 17.3333Z" fill="#FFA400"/>
  <path d="M33.5331 17.365L33.6231 18.9567L34.9856 19.785L33.4998 20.3625L33.1331 21.9142L32.1248 20.6792L30.5356 20.8108L31.3981 19.47L30.7823 17.9992L32.324 18.405L33.5331 17.365Z" fill="#FFA600"/>
  <path d="M33.5191 17.3967L33.6083 18.9658L34.9516 19.7825L33.4866 20.3517L33.1258 21.8808L32.1316 20.6642L30.5649 20.7933L31.4149 19.4717L30.8083 18.0217L32.3283 18.4217L33.5191 17.3967Z" fill="#FFA800"/>
  <path d="M33.5059 17.4292L33.5934 18.975L34.9176 19.7792L33.4742 20.3408L33.1176 21.8483L32.1376 20.6492L30.5942 20.7758L31.4326 19.4733L30.8342 18.045L32.3317 18.4392L33.5059 17.4292Z" fill="#FFAA00"/>
  <path d="M33.4927 17.4608L33.5794 18.9842L34.8835 19.7767L33.461 20.33L33.1102 21.8158L32.1444 20.6333L30.6235 20.7592L31.4494 19.4758L30.8602 18.0675L32.336 18.4558L33.4927 17.4608Z" fill="#FFAB00"/>
  <path d="M33.479 17.4925L33.564 18.9933L34.849 19.7742L33.4473 20.3192L33.1023 21.7825L32.1507 20.6183L30.6523 20.7417L31.4657 19.4775L30.8848 18.0908L32.339 18.4733L33.479 17.4925Z" fill="#FFAE00"/>
  <path d="M33.465 17.5242L33.5491 19.0025L34.815 19.7717L33.435 20.3083L33.0941 21.75L32.1575 20.6033L30.6816 20.725L31.4825 19.4792L30.9108 18.1133L32.3425 18.49L33.465 17.5242Z" fill="#FFAF00"/>
  <path d="M33.4518 17.5558L33.5343 19.0117L34.7809 19.7692L33.4218 20.2975L33.0868 21.7167L32.1643 20.5875L30.7109 20.7075L31.4993 19.4808L30.9368 18.1358L32.3468 18.5075L33.4518 17.5558Z" fill="#FFB100"/>
  <path d="M33.4386 17.5883L33.5202 19.0217L34.7469 19.7667L33.4086 20.2867L33.0786 21.6842L32.1702 20.5725L30.7402 20.6908L31.5161 19.4833L30.9619 18.1592L32.3502 18.5242L33.4386 17.5883Z" fill="#FFB400"/>
  <path d="M33.4252 17.62L33.5052 19.0308L34.7127 19.7642L33.3952 20.2767L33.0711 21.6517L32.1769 20.5575L30.7686 20.6733L31.5336 19.485L30.9877 18.1817L32.3544 18.5417L33.4252 17.62Z" fill="#FFB500"/>
  <path d="M33.4107 17.6517L33.4899 19.04L34.6782 19.7617L33.3824 20.2658L33.0624 21.6183L32.1832 20.5417L30.7974 20.6558L31.5499 19.4867L31.0132 18.205L32.3574 18.5583L33.4107 17.6517Z" fill="#FFB700"/>
  <path d="M33.3975 17.6833L33.475 19.0492L34.6442 19.7592L33.3692 20.255L33.055 21.5858L32.19 20.5267L30.8267 20.6392L31.5667 19.4892L31.0383 18.2275L32.3608 18.5758L33.3975 17.6833Z" fill="#FFB900"/>
  <path d="M33.3843 17.7158L33.4601 19.0583L34.6101 19.7567L33.356 20.2442L33.0476 21.5525L32.1968 20.5117L30.856 20.6217L31.5835 19.4908L31.0643 18.25L32.3651 18.5925L33.3843 17.7158Z" fill="#FFBB00"/>
  <path d="M33.3706 17.7475L33.4456 19.0675L34.5748 19.7542L33.3431 20.2333L33.0389 21.52L32.2023 20.4958L30.8848 20.605L31.5998 19.4925L31.0898 18.2733L32.3681 18.61L33.3706 17.7475Z" fill="#FFBC00"/>
  <path d="M33.3566 17.7792L33.4307 19.0767L34.5407 19.7517L33.3299 20.2225L33.0316 21.4867L32.2091 20.4808L30.9141 20.5875L31.6174 19.495L31.1157 18.2958L32.3716 18.6267L33.3566 17.7792Z" fill="#FFBF00"/>
  <path d="M33.3434 17.8108L33.4159 19.0858L34.5067 19.7492L33.3167 20.2117L33.0234 21.4542L32.2159 20.4658L30.9434 20.57L31.6342 19.4967L31.1409 18.3192L32.3759 18.6442L33.3434 17.8108Z" fill="#FFC000"/>
  <path d="M33.3302 17.8433L33.401 19.095L34.4727 19.7467L33.3043 20.2008L33.016 21.4217L32.2227 20.45L30.9727 20.5533L31.651 19.4983L31.1668 18.3417L32.3793 18.6608L33.3302 17.8433Z" fill="#FFC200"/>
  <path d="M33.3165 17.875L33.3856 19.1042L34.4381 19.7433L33.2906 20.19L33.0073 21.3883L32.229 20.435L31.0015 20.5358L31.6673 19.5L31.1923 18.3642L32.3831 18.6783L33.3165 17.875Z" fill="#FFC500"/>
  <path d="M33.3024 17.9067L33.3716 19.1133L34.4041 19.7408L33.2774 20.1792L32.9999 21.3558L32.2349 20.42L31.0308 20.5192L31.6841 19.5025L31.2174 18.3875L32.3866 18.695L33.3024 17.9067Z" fill="#FFC600"/>
  <path d="M33.2892 17.9383L33.3567 19.1225L34.3701 19.7383L33.2651 20.1683L32.9926 21.3225L32.2417 20.4042L31.0601 20.5017L31.7017 19.5042L31.2434 18.41L32.3901 18.7125L33.2892 17.9383Z" fill="#FFC800"/>
  <path d="M33.276 17.97L33.3419 19.1317L34.336 19.7358L33.2519 20.1575L32.9844 21.29L32.2485 20.3892L31.0894 20.485L31.7185 19.5058L31.2694 18.4333L32.3944 18.7292L33.276 17.97Z" fill="#FFCA00"/>
  <path d="M33.2627 18.0025L33.3268 19.1408L34.3018 19.7333L33.2385 20.1467L32.9768 21.2575L32.2552 20.3733L31.1177 20.4675L31.7352 19.5083L31.2943 18.4558L32.3977 18.7467L33.2627 18.0025Z" fill="#FFCC00"/>
  <path d="M33.249 18.0342L33.3123 19.15L34.2673 19.7308L33.2257 20.1358L32.9682 21.2242L32.2606 20.3583L31.1465 20.45L31.7515 19.51L31.3198 18.4783L32.4015 18.7633L33.249 18.0342Z" fill="#FFCD00"/>
  <path d="M33.2349 18.0658L33.2974 19.1592L34.2333 19.7283L33.2124 20.125L32.9608 21.1917L32.2674 20.3433L31.1758 20.4333L31.7683 19.5117L31.3458 18.5017L32.4049 18.7808L33.2349 18.0658Z" fill="#FFD000"/>
  <path d="M33.2217 18.0975L33.2826 19.1692L34.1992 19.7258L33.1992 20.115L32.9534 21.1583L32.2742 20.3275L31.2051 20.4158L31.7859 19.5142L31.3717 18.5242L32.4084 18.7975L33.2217 18.0975Z" fill="#FFD200"/>
  <path d="M33.2085 18.13L33.2677 19.1783L34.1652 19.7233L33.1869 20.1042L32.9452 21.1258L32.281 20.3125L31.2344 20.3992L31.8027 19.5158L31.3969 18.5475L32.4127 18.8142L33.2085 18.13Z" fill="#FFD300"/>
  <path d="M33.1949 18.1617L33.2524 19.1875L34.1307 19.7208L33.1732 20.0933L32.9373 21.0925L32.2874 20.2975L31.2632 20.3817L31.819 19.5175L31.4223 18.57L32.4157 18.8317L33.1949 18.1617Z" fill="#FFD600"/>
  <path d="M33.1808 18.1933L33.2383 19.1967L34.0966 19.7183L33.16 20.0825L32.9291 21.06L32.2933 20.2817L31.2925 20.3642L31.8358 19.52L31.4483 18.5925L32.4191 18.8483L33.1808 18.1933Z" fill="#FFD700"/>
  <path d="M33.1676 18.225L33.2234 19.2058L34.0626 19.7158L33.1476 20.0717L32.9218 21.0275L32.3001 20.2667L31.3218 20.3475L31.8526 19.5217L31.4734 18.6158L32.4234 18.8658L33.1676 18.225Z" fill="#FFDA00"/>
  <path d="M33.1544 18.2567L33.2086 19.215L34.0286 19.7133L33.1344 20.0608L32.9136 20.9942L32.3069 20.2517L31.3511 20.33L31.8702 19.5233L31.4994 18.6383L32.4269 18.8825L33.1544 18.2567Z" fill="#FFDB00"/>
  <path d="M33.1407 18.2892L33.1932 19.2242L33.9941 19.7108L33.1207 20.05L32.9057 20.9617L32.3132 20.2358L31.3799 20.3133L31.8866 19.525L31.5249 18.6617L32.4307 18.9L33.1407 18.2892Z" fill="#FFDD00"/>
  <path d="M33.1267 18.3208L33.1792 19.2333L33.96 19.7075L33.1083 20.0392L32.8983 20.9283L32.32 20.2208L31.4092 20.2958L31.9033 19.5275L31.55 18.6842L32.4342 18.9167L33.1267 18.3208Z" fill="#FFE000"/>
  <path d="M33.1135 18.3525L33.1643 19.2425L33.926 19.705L33.0951 20.0283L32.8901 20.8958L32.326 20.2058L31.4385 20.2792L31.9201 19.5292L31.576 18.7067L32.4376 18.9342L33.1135 18.3525Z" fill="#FFE100"/>
  <path d="M33.1001 18.3842L33.1493 19.2517L33.8918 19.7025L33.0818 20.0175L32.8826 20.8633L32.3326 20.19L31.4668 20.2617L31.9368 19.5308L31.6018 18.73L32.4418 18.9508L33.1001 18.3842Z" fill="#FFE400"/>
  <path d="M33.0864 18.4167L33.1339 19.2608L33.8573 19.7L33.0689 20.0067L32.8739 20.83L32.3389 20.175L31.4956 20.2442L31.9531 19.5333L31.6273 18.7525L32.4448 18.9683L33.0864 18.4167Z" fill="#FFE500"/>
  <path d="M33.0724 18.4483L33.1191 19.27L33.8232 19.6975L33.0557 19.9958L32.8666 20.7975L32.3457 20.16L31.5249 20.2275L31.9707 19.535L31.6524 18.7758L32.4491 18.985L33.0724 18.4483Z" fill="#FFE700"/>
  <path d="M33.0592 18.48L33.105 19.2792L33.7892 19.695L33.0425 19.985L32.8584 20.7642L32.3525 20.1442L31.5542 20.21L31.9875 19.5367L31.6784 18.7983L32.4525 19.0025L33.0592 18.48Z" fill="#FFE900"/>
  <path d="M33.046 18.5117L33.0902 19.2883L33.7552 19.6925L33.0302 19.9742L32.851 20.7317L32.3585 20.1292L31.5835 20.1933L32.0043 19.5392L31.7043 18.8217L32.456 19.0192L33.046 18.5117Z" fill="#FFEB00"/>
  <path d="M5.38232 14.9175L6.58316 14.2583L6.72149 12.895L7.71899 13.8333L9.05816 13.5433L8.47399 14.7825L9.16399 15.9658L7.80482 15.7933L6.89232 16.8158L6.63649 15.47L5.38232 14.9175Z" fill="#FF7E00"/>
  <path d="M5.4165 14.9158L6.59817 14.2675L6.73317 12.9258L7.71567 13.8492L9.03234 13.5642L8.45817 14.7833L9.1365 15.9475L7.79984 15.7783L6.9015 16.7833L6.64984 15.4592L5.4165 14.9158Z" fill="#FF8000"/>
  <path d="M5.44971 14.9142L6.61221 14.2767L6.74554 12.9575L7.71137 13.8658L9.00721 13.585L8.44137 14.7842L9.10887 15.9292L7.79387 15.7625L6.91054 16.7517L6.66304 15.4492L5.44971 14.9142Z" fill="#FF8300"/>
  <path d="M5.4834 14.9133L6.62673 14.2858L6.75756 12.9883L7.70757 13.8817L8.98173 13.605L8.4259 14.785L9.08256 15.9108L7.78923 15.7467L6.9209 16.7192L6.67673 15.4383L5.4834 14.9133Z" fill="#FF8500"/>
  <path d="M5.51709 14.9117L6.64042 14.295L6.76959 13.0192L7.70292 13.8975L8.95542 13.6258L8.40959 14.785L9.05459 15.8925L7.78292 15.7317L6.92959 16.6875L6.68959 15.4283L5.51709 14.9117Z" fill="#FF8800"/>
  <path d="M5.55078 14.91L6.65495 14.3042L6.78161 13.0508L7.69911 13.9133L8.93078 13.6467L8.39328 14.7858L9.02745 15.8742L7.77828 15.7158L6.93911 16.655L6.70411 15.4175L5.55078 14.91Z" fill="#FF8B00"/>
  <path d="M5.58496 14.9083L6.66913 14.3133L6.79413 13.0817L7.69579 13.9292L8.90496 13.6675L8.37746 14.7867L9.00079 15.8558L7.77246 15.7L6.94829 16.6233L6.71746 15.4075L5.58496 14.9083Z" fill="#FF8E00"/>
  <path d="M5.61816 14.9075L6.684 14.3225L6.80566 13.1125L7.6915 13.9458L8.879 13.6883L8.36066 14.7875L8.97316 15.8375L7.76733 15.6842L6.95733 16.5908L6.73066 15.3967L5.61816 14.9075Z" fill="#FF9000"/>
  <path d="M5.65137 14.9058L6.69803 14.3317L6.81803 13.1442L7.6872 13.9617L8.85387 13.7083L8.3447 14.7883L8.94553 15.8192L7.76137 15.6692L6.9672 16.5592L6.74387 15.3867L5.65137 14.9058Z" fill="#FF9300"/>
  <path d="M5.68555 14.9042L6.71221 14.3408L6.82971 13.175L7.68305 13.9775L8.82805 13.7292L8.32888 14.7892L8.91805 15.8008L7.75638 15.6533L6.97638 16.5267L6.75721 15.3767L5.68555 14.9042Z" fill="#FF9600"/>
  <path d="M5.71875 14.9025L6.72625 14.35L6.84208 13.2067L7.67875 13.9933L8.80208 13.75L8.31208 14.7892L8.89125 15.7825L7.75125 15.6375L6.98542 16.495L6.77042 15.3658L5.71875 14.9025Z" fill="#FF9800"/>
  <path d="M5.75293 14.9017L6.74043 14.3592L6.85376 13.2375L7.67543 14.0092L8.7771 13.7708L8.29626 14.79L8.86376 15.7642L7.74543 15.6225L6.9946 16.4633L6.78376 15.3558L5.75293 14.9017Z" fill="#FF9C00"/>
  <path d="M5.78662 14.9L6.75495 14.3683L6.86662 13.2683L7.67162 14.0258L8.75162 13.7917L8.28079 14.7908L8.83662 15.7458L7.74079 15.6067L7.00412 16.4308L6.79829 15.345L5.78662 14.9Z" fill="#FF9E00"/>
  <path d="M5.81982 14.8983L6.76982 14.3775L6.87816 13.3L7.66732 14.0417L8.72566 13.8117L8.26399 14.7917L8.80982 15.7275L7.73482 15.5908L7.01399 16.3992L6.81149 15.335L5.81982 14.8983Z" fill="#FFA000"/>
  <path d="M5.854 14.8967L6.784 14.3867L6.89067 13.3308L7.66317 14.0575L8.70067 13.8325L8.24817 14.7925L8.78234 15.7092L7.72984 15.5758L7.02317 16.3667L6.82484 15.3242L5.854 14.8967Z" fill="#FFA400"/>
  <path d="M5.88721 14.8958L6.79804 14.3958L6.90221 13.3617L7.65971 14.0733L8.67471 13.8533L8.23137 14.7933L8.75471 15.6908L7.72387 15.56L7.03221 16.335L6.83804 15.3142L5.88721 14.8958Z" fill="#FFA600"/>
  <path d="M5.92139 14.8942L6.81222 14.405L6.91472 13.3933L7.65555 14.0892L8.64889 13.8742L8.21555 14.7942L8.72722 15.6725L7.71889 15.5442L7.04139 16.3025L6.85139 15.3042L5.92139 14.8942Z" fill="#FFA900"/>
  <path d="M5.95459 14.8925L6.82626 14.4142L6.92626 13.4242L7.65126 14.1058L8.62376 13.895L8.19959 14.7942L8.70042 15.6542L7.71292 15.5283L7.05042 16.2708L6.86459 15.2933L5.95459 14.8925Z" fill="#FFAC00"/>
  <path d="M5.98828 14.8908L6.84078 14.4225L6.93911 13.455L7.64745 14.1217L8.59828 13.915L8.18328 14.795L8.67328 15.6358L7.70828 15.5133L7.06078 16.2383L6.87911 15.2833L5.98828 14.8908Z" fill="#FFAF00"/>
  <path d="M6.02246 14.8892L6.85579 14.4317L6.95079 13.4867L7.64329 14.1375L8.57246 13.9358L8.16746 14.7958L8.64579 15.6175L7.70329 15.4975L7.06996 16.2067L6.89246 15.2725L6.02246 14.8892Z" fill="#FFB100"/>
  <path d="M6.05566 14.8883L6.86983 14.4408L6.96316 13.5175L7.63983 14.1533L8.54733 13.9567L8.1515 14.7967L8.619 15.5992L7.69733 15.4817L7.079 16.1742L6.90566 15.2625L6.05566 14.8883Z" fill="#FFB500"/>
  <path d="M6.08887 14.8867L6.88387 14.45L6.9747 13.5483L7.63553 14.1692L8.52137 13.9775L8.1347 14.7975L8.59137 15.5808L7.6922 15.4667L7.08803 16.1425L6.91887 15.2517L6.08887 14.8867Z" fill="#FFB700"/>
  <path d="M6.12305 14.885L6.89805 14.4592L6.98721 13.58L7.63138 14.185L8.49555 13.9983L8.11888 14.7983L8.56388 15.5625L7.68638 15.4508L7.09721 16.11L6.93221 15.2417L6.12305 14.885Z" fill="#FFBA00"/>
  <path d="M6.15625 14.8833L6.91208 14.4683L6.99875 13.6108L7.62708 14.2017L8.46958 14.0183L8.10208 14.7983L8.53625 15.5442L7.68125 15.435L7.10708 16.0783L6.94542 15.2308L6.15625 14.8833Z" fill="#FFBD00"/>
  <path d="M6.19043 14.8825L6.92626 14.4775L7.01126 13.6417L7.62293 14.2175L8.4446 14.0392L8.08626 14.7992L8.5096 15.525L7.67543 15.42L7.11626 16.0467L6.95876 15.2208L6.19043 14.8825Z" fill="#FFC000"/>
  <path d="M6.22412 14.8808L6.94162 14.4867L7.02329 13.6733L7.61995 14.2333L8.41912 14.06L8.07079 14.8L8.48245 15.5067L7.67079 15.4042L7.12579 16.0142L6.97329 15.2108L6.22412 14.8808Z" fill="#FFC200"/>
  <path d="M6.25732 14.8792L6.95566 14.4958L7.03566 13.7042L7.61566 14.2492L8.39316 14.0808L8.05399 14.8008L8.45482 15.4883L7.66566 15.3883L7.13482 15.9825L6.98649 15.2L6.25732 14.8792Z" fill="#FFC600"/>
  <path d="M6.2915 14.8775L6.96984 14.505L7.04734 13.735L7.6115 14.265L8.36817 14.1017L8.03817 14.8017L8.42817 15.47L7.65984 15.3725L7.144 15.95L6.99984 15.19L6.2915 14.8775Z" fill="#FFC800"/>
  <path d="M6.32471 14.8767L6.98387 14.5142L7.05971 13.7667L7.60721 14.2817L8.34221 14.1217L8.02137 14.8025L8.40054 15.4517L7.65471 15.3575L7.15387 15.9183L7.01304 15.1792L6.32471 14.8767Z" fill="#FFCB00"/>
  <path d="M6.35889 14.875L6.99805 14.5233L7.07139 13.7975L7.60305 14.2975L8.31639 14.1425L8.00555 14.8033L8.37305 15.4333L7.64889 15.3417L7.16305 15.8858L7.02639 15.1692L6.35889 14.875Z" fill="#FFCE00"/>
  <path d="M6.39209 14.8733L7.01292 14.5325L7.08376 13.8283L7.59959 14.3133L8.29126 14.1633L7.98959 14.8033L8.34542 15.415L7.64376 15.3258L7.17209 15.8542L7.03959 15.1583L6.39209 14.8733Z" fill="#FFD100"/>
  <path d="M6.42578 14.8717L7.02745 14.5417L7.09578 13.86L7.59578 14.3292L8.26578 14.1842L7.97328 14.8042L8.31911 15.3967L7.63828 15.3108L7.18161 15.8217L7.05328 15.1483L6.42578 14.8717Z" fill="#FFD300"/>
  <path d="M6.45996 14.8708L7.04163 14.5508L7.10829 13.8908L7.59163 14.345L8.23996 14.205L7.95746 14.805L8.29163 15.3783L7.63329 15.295L7.19079 15.79L7.06746 15.1383L6.45996 14.8708Z" fill="#FFD700"/>
  <path d="M6.49316 14.8692L7.05566 14.56L7.11983 13.9217L7.58733 14.3617L8.21483 14.2258L7.9415 14.8058L8.264 15.36L7.62733 15.2792L7.20066 15.7575L7.08066 15.1275L6.49316 14.8692Z" fill="#FFDA00"/>
  <path d="M6.52734 14.8675L7.06984 14.5692L7.13234 13.9533L7.58401 14.3775L8.18901 14.2458L7.92484 14.8067L8.23651 15.3417L7.62234 15.2633L7.20984 15.7258L7.09401 15.1175L6.52734 14.8675Z" fill="#FFDC00"/>
  <path d="M6.56055 14.8658L7.08388 14.5783L7.14388 13.9842L7.57971 14.3933L8.16305 14.2667L7.90888 14.8075L8.20971 15.3233L7.61721 15.2483L7.21888 15.6933L7.10721 15.1067L6.56055 14.8658Z" fill="#FFE000"/>
  <path d="M6.59375 14.8642L7.09875 14.5875L7.15625 14.015L7.57542 14.4092L8.13792 14.2875L7.89208 14.8075L8.18208 15.305L7.61125 15.2325L7.22792 15.6617L7.12042 15.0967L6.59375 14.8642Z" fill="#FFE200"/>
  <path d="M6.62793 14.8633L7.11293 14.5967L7.16793 14.0467L7.57126 14.425L8.1121 14.3083L7.87626 14.8083L8.1546 15.2867L7.60626 15.2167L7.2371 15.63L7.13376 15.0858L6.62793 14.8633Z" fill="#FFE500"/>
  <path d="M6.66162 14.8617L7.12745 14.6058L7.18079 14.0775L7.56745 14.4417L8.08662 14.3292L7.86079 14.8092L8.12829 15.2683L7.60079 15.2017L7.24745 15.5975L7.14829 15.0758L6.66162 14.8617Z" fill="#FFE900"/>
  <path d="M6.6958 14.86L7.14163 14.615L7.19247 14.1083L7.56413 14.4575L8.06163 14.3492L7.84413 14.81L8.1008 15.25L7.5958 15.1858L7.25663 15.5658L7.16163 15.065L6.6958 14.86Z" fill="#FFEB00"/>
  <path d="M18.46 7.09417L19.4858 6.99667L19.9858 6.09583L20.3966 7.04083L21.4075 7.23833L20.6358 7.92083L20.76 8.94333L19.8725 8.42L18.9383 8.85417L19.1616 7.84917L18.46 7.09417Z" fill="#FF7E00"/>
  <path d="M18.4917 7.10666L19.495 7.01083L19.985 6.13L20.3859 7.05416L21.375 7.2475L20.62 7.915L20.7417 8.915L19.8742 8.40333L18.96 8.82833L19.1784 7.84416L18.4917 7.10666Z" fill="#FF8100"/>
  <path d="M18.5239 7.11916L19.5048 7.025L19.9831 6.16333L20.3756 7.0675L21.3431 7.25666L20.6048 7.90916L20.7239 8.8875L19.8748 8.38666L18.9814 8.8025L19.1948 7.84L18.5239 7.11916Z" fill="#FF8400"/>
  <path d="M18.5557 7.13083L19.514 7.03916L19.9823 6.19666L20.3657 7.08083L21.3115 7.265L20.5898 7.90333L20.7057 8.85916L19.8765 8.37L19.0023 8.77666L19.2115 7.83583L18.5557 7.13083Z" fill="#FF8800"/>
  <path d="M18.5874 7.14333L19.5241 7.05333L19.9807 6.23083L20.3557 7.09417L21.2791 7.27417L20.5741 7.8975L20.6882 8.83167L19.8774 8.35333L19.0241 8.75L19.2282 7.83167L18.5874 7.14333Z" fill="#FF8C00"/>
  <path d="M18.6191 7.155L19.5341 7.0675L19.98 6.26417L20.3458 7.1075L21.2475 7.28333L20.5591 7.89167L20.67 8.80333L19.8791 8.33667L19.0458 8.72417L19.245 7.8275L18.6191 7.155Z" fill="#FF9000"/>
  <path d="M18.6509 7.1675L19.5434 7.08167L19.9792 6.29833L20.3359 7.12L21.215 7.2925L20.5442 7.88583L20.6517 8.77583L19.88 8.32L19.0675 8.69833L19.2617 7.82333L18.6509 7.1675Z" fill="#FF9300"/>
  <path d="M18.6831 7.17916L19.5531 7.09583L19.9773 6.33167L20.3256 7.13333L21.1831 7.30167L20.5281 7.88L20.6339 8.7475L19.8814 8.30333L19.0889 8.6725L19.2781 7.81917L18.6831 7.17916Z" fill="#FF9700"/>
  <path d="M18.7148 7.19166L19.5623 7.11L19.9765 6.36583L20.3157 7.14666L21.1515 7.31L20.5132 7.87416L20.6157 8.72L19.8823 8.28666L19.1098 8.64583L19.2948 7.815L18.7148 7.19166Z" fill="#FF9B00"/>
  <path d="M18.7466 7.20334L19.5724 7.12417L19.9749 6.39917L20.3057 7.16L21.1191 7.31917L20.4982 7.86834L20.5982 8.69167L19.8841 8.27084L19.1316 8.62L19.3116 7.81084L18.7466 7.20334Z" fill="#FF9E00"/>
  <path d="M18.7783 7.21583L19.5817 7.13833L19.9742 6.43333L20.295 7.17333L21.0875 7.32833L20.4825 7.8625L20.58 8.66333L19.885 8.25417L19.1533 8.59417L19.3283 7.80667L18.7783 7.21583Z" fill="#FFA200"/>
  <path d="M18.811 7.2275L19.5919 7.1525L19.9727 6.46667L20.2852 7.18667L21.0552 7.3375L20.4677 7.85667L20.5627 8.63583L19.8869 8.2375L19.1752 8.56833L19.3452 7.80167L18.811 7.2275Z" fill="#FFA600"/>
  <path d="M18.8423 7.24L19.6006 7.16667L19.9715 6.50083L20.2748 7.2L21.0231 7.34583L20.4515 7.85083L20.544 8.6075L19.8873 8.22083L19.1965 8.54166L19.3615 7.7975L18.8423 7.24Z" fill="#FFAA00"/>
  <path d="M18.874 7.25166L19.6107 7.18166L19.9699 6.53416L20.2649 7.21333L20.9915 7.355L20.4365 7.845L20.5257 8.58L19.889 8.20416L19.2174 8.51583L19.3782 7.79333L18.874 7.25166Z" fill="#FFAE00"/>
  <path d="M18.9058 7.26417L19.6208 7.19584L19.9691 6.56834L20.2549 7.22667L20.9591 7.36417L20.4216 7.83917L20.5083 8.55167L19.8899 8.1875L19.2391 8.49L19.3949 7.78917L18.9058 7.26417Z" fill="#FFB100"/>
  <path d="M18.9375 7.27584L19.63 7.21L19.9675 6.60167L20.245 7.24L20.9275 7.37334L20.4058 7.83334L20.49 8.52417L19.8917 8.17084L19.2608 8.46417L19.4117 7.785L18.9375 7.27584Z" fill="#FFB500"/>
  <path d="M18.9697 7.28833L19.6397 7.22417L19.9664 6.63583L20.2347 7.25333L20.8947 7.3825L20.3906 7.8275L20.4722 8.49583L19.8922 8.15417L19.2822 8.4375L19.4281 7.78083L18.9697 7.28833Z" fill="#FFB900"/>
  <path d="M19.0015 7.3L19.649 7.23833L19.9656 6.66917L20.2248 7.26583L20.8631 7.39083L20.3756 7.82167L20.454 8.46833L19.8931 8.1375L19.3031 8.41167L19.4448 7.77667L19.0015 7.3Z" fill="#FFBC00"/>
  <path d="M19.0332 7.3125L19.659 7.2525L19.964 6.70333L20.214 7.27916L20.8307 7.4L20.3599 7.81583L20.4365 8.44L19.8949 8.12083L19.3249 8.38583L19.4615 7.7725L19.0332 7.3125Z" fill="#FFC000"/>
  <path d="M19.0649 7.32416L19.6683 7.26666L19.9633 6.73666L20.2041 7.2925L20.7991 7.40916L20.3449 7.81083L20.4183 8.41166L19.8958 8.10416L19.3466 8.36L19.4783 7.76833L19.0649 7.32416Z" fill="#FFC500"/>
  <path d="M19.0977 7.33667L19.6785 7.28084L19.9618 6.77084L20.1943 7.30584L20.7677 7.41834L20.3302 7.805L20.4002 8.38417L19.8977 8.0875L19.3685 8.33334L19.4952 7.76417L19.0977 7.33667Z" fill="#FFC800"/>
  <path d="M19.1289 7.34834L19.6872 7.295L19.9606 6.80417L20.1839 7.31917L20.7347 7.42667L20.3139 7.79917L20.3822 8.35584L19.8981 8.07084L19.3897 8.3075L19.5114 7.76L19.1289 7.34834Z" fill="#FFCC00"/>
  <path d="M19.1606 7.36083L19.6973 7.30917L19.959 6.83833L20.174 7.3325L20.7031 7.43583L20.299 7.79333L20.364 8.32833L19.8998 8.05417L19.4106 8.28167L19.5281 7.755L19.1606 7.36083Z" fill="#FFD000"/>
  <path d="M19.1924 7.3725L19.7074 7.32333L19.9582 6.87167L20.164 7.34583L20.6707 7.445L20.284 7.7875L20.3465 8.3L19.9007 8.0375L19.4324 8.25583L19.5449 7.75083L19.1924 7.3725Z" fill="#FFD300"/>
  <path d="M19.2241 7.385L19.7166 7.3375L19.9566 6.90583L20.1541 7.35916L20.6391 7.45416L20.2683 7.78166L20.3283 8.2725L19.9025 8.02083L19.4541 8.22916L19.5616 7.74666L19.2241 7.385Z" fill="#FFD700"/>
  <path d="M19.2568 7.39666L19.7268 7.35166L19.956 6.93916L20.1443 7.3725L20.6077 7.46333L20.2535 7.77583L20.3102 8.24416L19.9035 8.00416L19.476 8.20333L19.5785 7.7425L19.2568 7.39666Z" fill="#FFDB00"/>
  <path d="M19.2881 7.40917L19.7356 7.36584L19.9539 6.97334L20.1331 7.38584L20.5748 7.47167L20.2381 7.77L20.2923 8.21667L19.9048 7.9875L19.4973 8.1775L19.5948 7.73834L19.2881 7.40917Z" fill="#FFE000"/>
  <path d="M19.3198 7.42083L19.7457 7.38L19.9532 7.00667L20.1232 7.39917L20.5432 7.48083L20.2223 7.76417L20.274 8.18833L19.9057 7.97083L19.5182 8.15167L19.6115 7.73417L19.3198 7.42083Z" fill="#FFE400"/>
  <path d="M19.3516 7.43333L19.7549 7.395L19.9524 7.04083L20.1132 7.4125L20.5107 7.49L20.2074 7.75833L20.2566 8.16L19.9074 7.955L19.5399 8.12583L19.6282 7.73L19.3516 7.43333Z" fill="#FFE700"/>
  <path d="M19.3843 7.445L19.7651 7.40916L19.9509 7.07417L20.1034 7.425L20.4793 7.49916L20.1926 7.7525L20.2384 8.1325L19.9084 7.93833L19.5618 8.09916L19.6451 7.72583L19.3843 7.445Z" fill="#FFEB00"/>
  <path d="M34.0489 27.3883L35.0214 27.7283L35.8523 27.12L35.8298 28.15L36.6648 28.7533L35.6781 29.0492L35.3623 30.03L34.7764 29.1833L33.7456 29.1867L34.3698 28.3667L34.0489 27.3883Z" fill="#FF7E00"/>
  <path d="M34.0722 27.4125L35.0239 27.745L35.8372 27.1508L35.8147 28.1583L36.6322 28.7483L35.6664 29.0375L35.358 29.9975L34.7839 29.1683L33.7764 29.1717L34.3872 28.37L34.0722 27.4125Z" fill="#FF8100"/>
  <path d="M34.0966 27.4367L35.0266 27.7625L35.8225 27.1808L35.8 28.1658L36.5991 28.7425L35.655 29.0258L35.3533 29.9642L34.7925 29.1542L33.8066 29.1575L34.4041 28.3733L34.0966 27.4367Z" fill="#FF8400"/>
  <path d="M34.1207 27.4608L35.0299 27.7792L35.8074 27.2108L35.7857 28.1733L36.5666 28.7375L35.6441 29.0142L35.3491 29.9317L34.8007 29.1392L33.8374 29.1425L34.4207 28.3758L34.1207 27.4608Z" fill="#FF8800"/>
  <path d="M34.1439 27.485L35.0322 27.7958L35.7914 27.2408L35.7705 28.1817L36.533 28.7325L35.6322 29.0025L35.3439 29.8983L34.808 29.125L33.8672 29.1275L34.4372 28.3792L34.1439 27.485Z" fill="#FF8C00"/>
  <path d="M34.168 27.51L35.0346 27.8133L35.7763 27.2708L35.7554 28.1892L36.5005 28.7267L35.6205 28.9908L35.3396 29.8658L34.8163 29.11L33.8979 29.1133L34.4546 28.3825L34.168 27.51Z" fill="#FF9000"/>
  <path d="M34.1924 27.5342L35.0382 27.83L35.7616 27.3008L35.7416 28.1967L36.4682 28.7217L35.6091 28.9792L35.3349 29.8325L34.8249 29.0958L33.9282 29.0983L34.4716 28.3858L34.1924 27.5342Z" fill="#FF9300"/>
  <path d="M34.2156 27.5583L35.0407 27.8467L35.7456 27.3308L35.7265 28.205L36.4348 28.7167L35.5982 28.9675L35.3307 29.8L34.8332 29.0808L33.959 29.0842L34.4881 28.3883L34.2156 27.5583Z" fill="#FF9700"/>
  <path d="M34.2396 27.5825L35.0429 27.8642L35.7304 27.3617L35.7113 28.2125L36.4021 28.7108L35.5863 28.9558L35.3254 29.7667L34.8404 29.0667L33.9888 29.0692L34.5054 28.3917L34.2396 27.5825Z" fill="#FF9B00"/>
  <path d="M34.2629 27.6067L35.0462 27.8808L35.7154 27.3917L35.697 28.2208L36.3687 28.7058L35.5745 28.9442L35.3212 29.7342L34.8487 29.0525L34.0195 29.055L34.522 28.395L34.2629 27.6067Z" fill="#FF9E00"/>
  <path d="M34.2873 27.6317L35.049 27.8975L35.7006 27.4217L35.6823 28.2283L36.3365 28.7008L35.564 28.9325L35.3165 29.7008L34.8573 29.0375L34.0498 29.04L34.539 28.3983L34.2873 27.6317Z" fill="#FFA200"/>
  <path d="M34.3114 27.6558L35.0514 27.915L35.6847 27.4517L35.6672 28.2358L36.3039 28.695L35.5522 28.9208L35.3122 29.6683L34.8647 29.0233L34.0806 29.025L34.5556 28.4008L34.3114 27.6558Z" fill="#FFA600"/>
  <path d="M34.335 27.68L35.055 27.9317L35.67 27.4817L35.6533 28.2442L36.2708 28.69L35.5408 28.9092L35.3075 29.635L34.8733 29.0083L34.1108 29.0108L34.5733 28.4042L34.335 27.68Z" fill="#FFAA00"/>
  <path d="M34.3591 27.7042L35.0574 27.9483L35.6549 27.5117L35.6383 28.2517L36.2383 28.685L35.5291 28.8975L35.3033 29.6025L34.8816 28.9942L34.1416 28.9958L34.5899 28.4075L34.3591 27.7042Z" fill="#FFAE00"/>
  <path d="M34.3831 27.7283L35.0597 27.9658L35.6397 27.5417L35.6231 28.2592L36.2047 28.68L35.5181 28.8858L35.2981 29.5692L34.8897 28.9792L34.1714 28.9817L34.6064 28.4108L34.3831 27.7283Z" fill="#FFB100"/>
  <path d="M34.4063 27.7525L35.063 27.9825L35.6238 27.5725L35.608 28.2675L36.1721 28.6742L35.5063 28.8742L35.293 29.5367L34.8971 28.965L34.2021 28.9667L34.623 28.4133L34.4063 27.7525Z" fill="#FFB500"/>
  <path d="M34.4308 27.7775L35.0658 27.9992L35.6091 27.6025L35.5941 28.275L36.1399 28.6692L35.4949 28.8625L35.2891 29.5033L34.9058 28.95L34.2324 28.9525L34.6408 28.4167L34.4308 27.7775Z" fill="#FFB900"/>
  <path d="M34.454 27.8017L35.0682 28.0167L35.594 27.6325L35.579 28.2833L36.1065 28.6642L35.4832 28.8508L35.284 29.47L34.914 28.9358L34.2632 28.9375L34.6573 28.42L34.454 27.8017Z" fill="#FFBC00"/>
  <path d="M34.478 27.8258L35.0713 28.0333L35.578 27.6625L35.5638 28.2908L36.0738 28.6583L35.4721 28.8392L35.2796 29.4375L34.9213 28.9208L34.293 28.9225L34.6738 28.4225L34.478 27.8258Z" fill="#FFC000"/>
  <path d="M34.5021 27.85L35.0737 28.05L35.5629 27.6925L35.5496 28.2983L36.0404 28.6533L35.4604 28.8275L35.2746 29.4042L34.9296 28.9067L34.3237 28.9083L34.6904 28.4258L34.5021 27.85Z" fill="#FFC500"/>
  <path d="M34.5257 27.8742L35.0765 28.0675L35.5482 27.7225L35.5348 28.3067L36.0082 28.6483L35.449 28.8158L35.2707 29.3717L34.9382 28.8917L34.354 28.8933L34.7082 28.4292L34.5257 27.8742Z" fill="#FFC800"/>
  <path d="M34.5498 27.8992L35.0798 28.0842L35.5331 27.7533L35.5198 28.3142L35.9756 28.6425L35.4373 28.8042L35.2656 29.3383L34.9464 28.8775L34.3848 28.8792L34.7248 28.4325L34.5498 27.8992Z" fill="#FFCC00"/>
  <path d="M34.5737 27.9233L35.082 28.1017L35.517 27.7833L35.5054 28.3217L35.942 28.6375L35.4262 28.7925L35.2612 29.3058L34.9537 28.8625L34.4146 28.8642L34.7412 28.435L34.5737 27.9233Z" fill="#FFD000"/>
  <path d="M34.5975 27.9475L35.085 28.1183L35.5025 27.8133L35.4908 28.33L35.91 28.6325L35.415 28.7808L35.2566 29.2725L34.9625 28.8483L34.4458 28.85L34.7591 28.4383L34.5975 27.9475Z" fill="#FFD300"/>
  <path d="M34.6214 27.9717L35.0881 28.135L35.4873 27.8433L35.4756 28.3375L35.8773 28.6267L35.4031 28.7692L35.2523 29.24L34.9706 28.8333L34.4756 28.835L34.7756 28.4417L34.6214 27.9717Z" fill="#FFD700"/>
  <path d="M34.6447 27.9958L35.0905 28.1525L35.4722 27.8733L35.4613 28.3458L35.8438 28.6217L35.3913 28.7575L35.2472 29.2067L34.978 28.8192L34.5063 28.82L34.7922 28.445L34.6447 27.9958Z" fill="#FFDB00"/>
  <path d="M34.6691 28.0208L35.0941 28.1692L35.4566 27.9033L35.4466 28.3533L35.8116 28.6167L35.3808 28.7458L35.2433 29.1742L34.9866 28.8042L34.5366 28.8058L34.8091 28.4475L34.6691 28.0208Z" fill="#FFE000"/>
  <path d="M34.6932 28.045L35.0965 28.1858L35.4415 27.9333L35.4315 28.3608L35.7782 28.6117L35.369 28.7342L35.2382 29.1408L34.9949 28.79L34.5674 28.7908L34.8266 28.4508L34.6932 28.045Z" fill="#FFE400"/>
  <path d="M34.7163 28.0692L35.0988 28.2033L35.4263 27.9642L35.4172 28.3692L35.7455 28.6058L35.3572 28.7225L35.233 29.1083L35.003 28.775L34.5972 28.7767L34.843 28.4542L34.7163 28.0692Z" fill="#FFE700"/>
  <path d="M34.7404 28.0933L35.1021 28.22L35.4104 27.9942L35.4021 28.3767L35.7129 28.6008L35.3463 28.7108L35.2288 29.075L35.0104 28.7608L34.6279 28.7617L34.8596 28.4575L34.7404 28.0933Z" fill="#FFEB00"/>
  <path d="M30.9657 12.57C31.7198 9.4275 22.6857 6.62834 22.479 3.39L22.5623 1.0975C23.4998 3.66667 32.5515 7.72917 31.3807 10.8383L30.9657 12.57Z" fill="url(#paint3_linear_10_2471)"/>
  <path d="M23.4507 13.105C24.2049 9.9625 30.4224 14.8342 31.009 12.39L31.4257 10.6583C30.8424 13.1025 24.6224 8.23167 23.8674 11.3742L23.4507 13.105Z" fill="url(#paint4_linear_10_2471)"/>
  <path d="M25.7891 20.0833C26.3316 17.55 22.6933 15.9817 23.4941 12.9167L23.9108 11.1858C23.3274 13.63 26.9591 15.2058 26.2049 18.3483L25.7891 20.0833Z" fill="url(#paint5_linear_10_2471)"/>
  <path d="M17.8742 26.2183C18.6283 23.0758 25.2025 22.53 25.7908 20.0858L26.2075 18.3542C25.6158 20.4767 18.2075 19.8058 17.4517 23.1158L17.8742 26.2183Z" fill="url(#paint6_linear_10_2471)"/>
  <path d="M20.7657 27.5117C19.8481 27.6118 18.9469 27.8283 18.084 28.1558L18.0915 28.1617C18.4157 28.4042 18.6207 28.5625 18.7198 28.6383C18.8557 28.7417 19.0532 28.8883 19.3115 29.06C20.2237 28.9444 21.1459 28.929 22.0615 29.0142C22.5505 29.0633 23.0367 29.1373 23.5182 29.2358C26.5974 29.9173 29.3243 31.6941 31.1915 34.2358C31.339 33.5775 31.4865 32.9267 31.6332 32.2767C30.3334 30.6729 28.6686 29.4035 26.778 28.5746C24.8874 27.7456 22.8259 27.3812 20.7657 27.5117Z" fill="url(#paint7_linear_10_2471)"/>
  <path d="M11.1606 13.3108C10.4473 10.7058 16.8889 9.24583 16.3431 7.25333L15.4331 4.70917C15.9789 6.70083 9.8031 9.05583 10.5164 11.6608L11.1606 13.3108Z" fill="url(#paint8_linear_10_2471)"/>
  <path d="M17.4633 16.7275C16.7499 14.1225 11.3016 14.9508 10.7558 12.9592L10.4399 11.2192C10.9849 13.2117 16.4341 12.3858 17.1474 14.9883L17.4633 16.7275Z" fill="url(#paint9_linear_10_2471)"/>
  <path d="M14.5134 22.6258C13.7476 20.035 18.1492 18.0667 17.5634 16.0858L16.9351 14.435C17.5184 16.4158 13.1184 18.385 13.8842 20.975L14.5134 22.6258Z" fill="url(#paint10_linear_10_2471)"/>
  <path d="M22.1664 21.25C21.6206 21.2111 21.1011 20.9998 20.6831 20.6467C20.3605 20.3685 20.1124 20.0142 19.9614 19.6158C20.2703 19.0942 20.5792 18.5719 20.8881 18.0492C21.0882 18.5288 21.4347 18.933 21.8781 19.2042C22.1288 19.3529 22.4048 19.454 22.6923 19.5025L22.1664 21.25Z" fill="url(#paint11_linear_10_2471)"/>
  <path d="M20.2849 15.2758C20.0569 15.5245 19.7746 15.7172 19.4599 15.8388C19.1452 15.9603 18.8067 16.0075 18.4707 15.9767V14.5758C19.015 14.5944 19.5527 14.4521 20.0165 14.1667L20.2849 15.2758Z" fill="url(#paint12_linear_10_2471)"/>
  <path d="M33.6991 5.27583C33.3588 5.64511 32.9317 5.92354 32.4566 6.08583C32.2448 6.15676 32.0256 6.2029 31.8032 6.22333V4.60166C32.0067 4.55531 32.2058 4.49147 32.3982 4.41083C32.7511 4.26309 33.0788 4.06153 33.3699 3.81333L33.6991 5.27583Z" fill="url(#paint13_linear_10_2471)"/>
  <path d="M7.1709 6.02583C7.28887 6.34134 7.47809 6.62535 7.72381 6.85575C7.96953 7.08615 8.26512 7.25672 8.58756 7.35416L9.1109 6.05416C8.93017 5.98907 8.75673 5.90528 8.5934 5.80416C8.29819 5.61639 8.04047 5.37534 7.8334 5.09333L7.1709 6.02583Z" fill="url(#paint14_linear_10_2471)"/>
  <path d="M29.8783 25.0192C29.5382 25.3896 29.1111 25.6694 28.6358 25.8333C28.424 25.9042 28.2048 25.9503 27.9824 25.9708V24.345C28.5604 24.2127 29.0977 23.9422 29.5483 23.5567L29.8783 25.0192Z" fill="url(#paint15_linear_10_2471)"/>
  <path d="M35.7307 14.7842C35.0471 14.6301 34.4194 14.2904 33.9165 13.8025L34.4315 12.34C34.5971 12.6356 34.8225 12.8934 35.0934 13.0969C35.3644 13.3004 35.6748 13.445 36.0048 13.5217L35.7307 14.7842Z" fill="url(#paint16_linear_10_2471)"/>
  <defs>
    <radialGradient id="paint0_radial_10_2471" cx="0" cy="0" r="1" gradientUnits="userSpaceOnUse" gradientTransform="translate(1.60805 14.1107) rotate(45) scale(42.9167)">
      <stop stop-color="#934A0C"/>
      <stop offset="0.106" stop-color="#FF7E00"/>
      <stop offset="0.186" stop-color="#FFEB00"/>
      <stop offset="0.234" stop-color="#FFEF45"/>
      <stop offset="0.284" stop-color="#FFF287"/>
      <stop offset="0.298" stop-color="#FFF27E"/>
      <stop offset="0.322" stop-color="#FFF065"/>
      <stop offset="0.351" stop-color="#FFEE3C"/>
      <stop offset="0.386" stop-color="#FFEB04"/>
      <stop offset="0.388" stop-color="#FFEB00"/>
      <stop offset="0.545" stop-color="#FF7E00"/>
      <stop offset="0.93" stop-color="#6D3913"/>
    </radialGradient>
    <radialGradient id="paint1_radial_10_2471" cx="0" cy="0" r="1" gradientUnits="userSpaceOnUse" gradientTransform="translate(13.9948 9.96893) rotate(45) scale(17.1757 17.5442)">
      <stop stop-color="#993712"/>
      <stop offset="1" stop-color="#FC520E"/>
    </radialGradient>
    <linearGradient id="paint2_linear_10_2471" x1="10.345" y1="26.4258" x2="23.4908" y2="23.0875" gradientUnits="userSpaceOnUse">
      <stop stop-color="#FFEF56"/>
      <stop offset="1" stop-color="#FC6115"/>
    </linearGradient>
    <linearGradient id="paint3_linear_10_2471" x1="32.0346" y1="7.94924" x2="21.6238" y2="5.78072" gradientUnits="userSpaceOnUse">
      <stop stop-color="#8E0000"/>
      <stop offset="0.293" stop-color="#FF0000"/>
      <stop offset="0.428" stop-color="#EA0000"/>
      <stop offset="0.708" stop-color="#B40000"/>
      <stop offset="1" stop-color="#760000"/>
    </linearGradient>
    <linearGradient id="paint4_linear_10_2471" x1="23.9846" y1="10.9378" x2="30.8905" y2="12.8254" gradientUnits="userSpaceOnUse">
      <stop stop-color="#8E0000"/>
      <stop offset="0.293" stop-color="#FF0000"/>
      <stop offset="0.428" stop-color="#EA0000"/>
      <stop offset="0.708" stop-color="#B40000"/>
      <stop offset="1" stop-color="#760000"/>
    </linearGradient>
    <linearGradient id="paint5_linear_10_2471" x1="26.7147" y1="16.0454" x2="23.0294" y2="15.2779" gradientUnits="userSpaceOnUse">
      <stop stop-color="#8E0000"/>
      <stop offset="0.293" stop-color="#FF0000"/>
      <stop offset="0.428" stop-color="#EA0000"/>
      <stop offset="0.708" stop-color="#B40000"/>
      <stop offset="1" stop-color="#760000"/>
    </linearGradient>
    <linearGradient id="paint6_linear_10_2471" x1="18.2794" y1="22.9343" x2="25.4235" y2="21.702" gradientUnits="userSpaceOnUse">
      <stop offset="0.293" stop-color="#FF0000"/>
      <stop offset="0.428" stop-color="#EA0000"/>
      <stop offset="0.708" stop-color="#B40000"/>
      <stop offset="1" stop-color="#760000"/>
    </linearGradient>
    <linearGradient id="paint7_linear_10_2471" x1="33.3103" y1="38.98" x2="20.8962" y2="26.0244" gradientUnits="userSpaceOnUse">
      <stop offset="0.188" stop-color="#1E380B"/>
      <stop offset="0.598" stop-color="#97CA00"/>
      <stop offset="0.648" stop-color="#8FC001"/>
      <stop offset="0.733" stop-color="#78A504"/>
      <stop offset="0.843" stop-color="#537908"/>
      <stop offset="0.927" stop-color="#33530C"/>
    </linearGradient>
    <linearGradient id="paint8_linear_10_2471" x1="7.93052" y1="10.9863" x2="17.2986" y2="7.53611" gradientUnits="userSpaceOnUse">
      <stop offset="0.188" stop-color="#1E380B"/>
      <stop offset="0.598" stop-color="#97CA00"/>
      <stop offset="0.648" stop-color="#8FC001"/>
      <stop offset="0.733" stop-color="#78A504"/>
      <stop offset="0.843" stop-color="#537908"/>
      <stop offset="0.927" stop-color="#33530C"/>
    </linearGradient>
    <linearGradient id="paint9_linear_10_2471" x1="5.78509" y1="13.4842" x2="16.675" y2="14.1369" gradientUnits="userSpaceOnUse">
      <stop offset="0.188" stop-color="#1E380B"/>
      <stop offset="0.598" stop-color="#97CA00"/>
      <stop offset="0.648" stop-color="#8FC001"/>
      <stop offset="0.733" stop-color="#78A504"/>
      <stop offset="0.843" stop-color="#537908"/>
      <stop offset="0.927" stop-color="#33530C"/>
    </linearGradient>
    <linearGradient id="paint10_linear_10_2471" x1="11.9846" y1="21.3028" x2="19.3455" y2="15.8456" gradientUnits="userSpaceOnUse">
      <stop offset="0.188" stop-color="#1E380B"/>
      <stop offset="0.598" stop-color="#97CA00"/>
      <stop offset="0.648" stop-color="#8FC001"/>
      <stop offset="0.733" stop-color="#78A504"/>
      <stop offset="0.843" stop-color="#537908"/>
      <stop offset="0.927" stop-color="#33530C"/>
    </linearGradient>
    <linearGradient id="paint11_linear_10_2471" x1="57.5497" y1="59.9433" x2="55.5695" y2="55.7557" gradientUnits="userSpaceOnUse">
      <stop offset="0.188" stop-color="#1E380B"/>
      <stop offset="0.598" stop-color="#97CA00"/>
      <stop offset="0.648" stop-color="#8FC001"/>
      <stop offset="0.733" stop-color="#78A504"/>
      <stop offset="0.843" stop-color="#537908"/>
      <stop offset="0.927" stop-color="#33530C"/>
    </linearGradient>
    <linearGradient id="paint12_linear_10_2471" x1="60.7031" y1="61.3529" x2="61.1347" y2="58.1413" gradientUnits="userSpaceOnUse">
      <stop offset="0.188" stop-color="#1E380B"/>
      <stop offset="0.598" stop-color="#97CA00"/>
      <stop offset="0.648" stop-color="#8FC001"/>
      <stop offset="0.733" stop-color="#78A504"/>
      <stop offset="0.843" stop-color="#537908"/>
      <stop offset="0.927" stop-color="#33530C"/>
    </linearGradient>
    <linearGradient id="paint13_linear_10_2471" x1="70.7002" y1="47.8295" x2="71.3754" y2="45.1409" gradientUnits="userSpaceOnUse">
      <stop offset="0.188" stop-color="#1E380B"/>
      <stop offset="0.598" stop-color="#97CA00"/>
      <stop offset="0.648" stop-color="#8FC001"/>
      <stop offset="0.733" stop-color="#78A504"/>
      <stop offset="0.843" stop-color="#537908"/>
      <stop offset="0.927" stop-color="#33530C"/>
    </linearGradient>
    <linearGradient id="paint14_linear_10_2471" x1="9.79281" y1="7.07852" x2="6.96607" y2="5.49426" gradientUnits="userSpaceOnUse">
      <stop offset="0.188" stop-color="#1E380B"/>
      <stop offset="0.598" stop-color="#97CA00"/>
      <stop offset="0.648" stop-color="#8FC001"/>
      <stop offset="0.733" stop-color="#78A504"/>
      <stop offset="0.843" stop-color="#537908"/>
      <stop offset="0.927" stop-color="#33530C"/>
    </linearGradient>
    <linearGradient id="paint15_linear_10_2471" x1="50.9346" y1="51.5331" x2="51.6097" y2="48.8454" gradientUnits="userSpaceOnUse">
      <stop offset="0.188" stop-color="#1E380B"/>
      <stop offset="0.598" stop-color="#97CA00"/>
      <stop offset="0.648" stop-color="#8FC001"/>
      <stop offset="0.733" stop-color="#78A504"/>
      <stop offset="0.843" stop-color="#537908"/>
      <stop offset="0.927" stop-color="#33530C"/>
    </linearGradient>
    <linearGradient id="paint16_linear_10_2471" x1="63.2556" y1="45.6303" x2="62.0919" y2="42.6008" gradientUnits="userSpaceOnUse">
      <stop offset="0.188" stop-color="#1E380B"/>
      <stop offset="0.598" stop-color="#97CA00"/>
      <stop offset="0.648" stop-color="#8FC001"/>
      <stop offset="0.733" stop-color="#78A504"/>
      <stop offset="0.843" stop-color="#537908"/>
      <stop offset="0.927" stop-color="#33530C"/>
    </linearGradient>
  </defs>
</svg>