<svg xmlns="http://www.w3.org/2000/svg" width="100%" height="361" viewBox="0 0 1440 361" fill="none">
<path d="M1521.51 192.072C1516.06 193.532 1511.76 192.54 1507.6 192.691C1503.36 193.196 1499.13 195.436 1496.14 192.888C1492.42 193.56 1489.17 192.955 1485.86 192.358C1482.62 191.439 1478.99 192.094 1475.52 190.76C1471.44 192.851 1467.69 193.099 1464.68 190.809C1461.54 189.164 1458.28 188.888 1454.97 190.909C1452.46 189.337 1449.48 191.938 1447.99 191.148C1446.39 190.82 1445.2 191.971 1445.34 191.609C1442.67 186.778 1437.97 190.012 1433.22 192.568C1429.59 190.041 1424.57 192.919 1420.05 192.721C1415.18 194.142 1411.51 189.363 1406.04 192.191C1402.01 188.47 1397.04 188.395 1391.37 191.155C1387.67 184.943 1381.72 188.538 1376.24 189.77C1371.37 187.672 1365.99 187.121 1360.86 188.197C1355.89 186.843 1350.88 185.653 1345.43 186.591C1339.74 188.557 1334.8 187.255 1330.13 185.108C1324.99 185.082 1319.61 186.349 1315.16 183.912C1310.17 187.155 1307.5 181.127 1303.06 183.722C1299.46 182.486 1295.55 183.291 1291.52 184.584C1287.39 186.384 1283.95 184.97 1279.95 185.592C1275.89 186.45 1271.64 187.582 1267.75 185.827C1264.76 184.898 1260.67 186.482 1257.58 183.726C1254.59 180.458 1250.54 182.183 1247.49 182.069C1245.22 181.965 1242.49 182.792 1240.09 181.289C1237.53 180.597 1235.56 176.415 1231.87 179.509C1229.07 178.601 1226.27 177.271 1223 177.707C1219.98 177.057 1216.36 178.957 1213.73 176.45C1210.64 177.042 1207.43 176.979 1204.34 176.266C1201.49 175.59 1198.72 174.64 1196.05 173.429C1190.32 173.581 1185.25 173.435 1181.8 170.991C1177.19 173.836 1175.74 167.399 1174 169.674C1171.08 169.257 1168.16 168.618 1165.06 168.069C1162.32 165.839 1158.42 168.11 1155.36 165.318C1151.84 164.635 1148.21 163.227 1144.05 162.462C1139.92 161.578 1135.92 158.356 1130.22 160.575C1120.93 157.982 1116.42 155.461 1113.37 154.715C1109.94 155.658 1108.78 154.639 1106.64 153.015C1103.77 154.703 1100.37 153.707 1093.02 152.106C1089.33 153.628 1085.49 155.306 1082.92 150.28C1079.58 148.815 1075.24 150.826 1072.47 144.546C1068.76 142.572 1064.19 143.166 1059 144.982C1060.33 144.772 1059.54 145.842 1057.95 144.763C1057.32 139.384 1054.31 139.086 1050.56 139.157C1048.32 132.392 1043.08 136.228 1038.83 135.194C1033.36 139.752 1029.36 137.325 1024.78 139.894C1017.37 139.16 1012.87 136.636 1008.34 139.048C1005.16 135.399 1001.66 137.95 998.468 137.452C995.456 136.142 992.04 134.966 986.122 136.948C985.291 134.518 981.531 132.474 976.336 134.819C971.633 134.927 965.801 138.001 963.042 135.604C959.482 136.831 958.611 134.339 961.101 135.71C959.008 134.98 957.188 134.09 954.62 137.376C952.615 138.108 951.167 137.133 949.369 138.34C947.772 138.634 946.008 140.259 945.025 138.7C944.006 137.312 942.385 139.011 941.337 138.229C940.376 137.063 938.516 140.589 938.08 137.694C936.869 138.325 935.962 137.604 935.232 135.534C934.287 134.393 933.415 132.346 931.553 133.639C930.415 131.598 928.915 130.035 926.607 130.32C924.445 131.123 923.037 129.88 921.335 130.805C919.954 130.3 918.596 130.606 917.319 130.767C915.849 131.842 914.819 131.279 913.811 130.411C913.447 129.354 913.011 128.576 912.427 128.379C911.842 128.183 911.097 128.574 910.124 129.851C909.156 127.946 907.508 128.452 905.511 129.313C903.775 128.985 902.052 127.408 899.565 127.563C898.172 125.264 896.1 126.697 894.471 126.56C892.951 125.947 891.247 126.587 890.156 124.661C885.874 122.648 881.385 124.518 878.396 121.23C874.995 119.922 871.753 119.617 869.105 117.139C866.609 114.025 863.383 114.777 860.648 112.755C857.121 114.238 854.452 111.231 851.33 108.447C847.988 106.658 844.826 104.045 840.977 104.104C837.496 102.481 833.281 103.743 830.03 99.7324C825.282 102.455 822.988 93.2449 817.772 95.864C813.241 95.3703 808.227 95.709 803.479 93.0399C804.231 94.4766 804.444 91.0897 803.424 90.8718C803.241 86.8711 801.042 89.5766 800.034 89.3027C795.45 85.8882 790.258 86.4254 785.154 87.6298C781.123 83.9778 775.703 87.6718 771.325 87.5317C766.425 89.7778 762.414 88.9642 758.498 88.3438C755.67 82.8771 749.932 91.3161 746.622 89.3932C742.488 90.618 738.664 90.6152 734.883 90.2026C730.952 90.4719 727.232 89.6714 723.024 90.8376C717.904 96.1028 715.054 90.8913 710.957 90.9441C706.438 92.9052 703.117 89.0764 698.604 90.1617C694.787 88.109 690.045 89.7284 685.883 88.1406C684.657 88.8194 683.215 89.0448 681.811 88.7769C680.652 88.5865 679.572 88.266 678.354 88.537C675.781 89.6592 674.031 86.7182 670.576 87.8459C664.195 86.7741 658.034 84.7071 653.763 86.5121C650.539 83.5643 648.694 86.7991 652.987 87.1145C651.795 87.6912 649.939 86.9457 646.577 86.7833C642.874 88.1679 638.093 88.1894 631.754 87.1553C627.412 87.0908 623.258 86.1223 619.885 86.9081C616.627 87.1452 614.554 87.3608 615.36 85.392C612.419 83.5608 608.238 85.7898 604.224 87.5209C600.712 86.9785 596.859 88.2226 594.048 86.7796C591.028 86.2832 588.125 87.2854 586.814 84.8606C585.128 84.1588 584.192 83.8543 584.522 83.4606C578.018 83.4191 572.062 83.7689 567.746 82.067C563.188 81.4532 559.941 80.2667 558.066 80.6423C556.855 78.1026 556.281 80.461 558.611 80.0288C556.76 79.0218 553.018 76.9661 548.033 77.518C543.785 74.7303 537.794 76.8125 533.506 74.783C529.192 72.8767 525.546 71.5167 523.356 73.8644C521.007 73.7023 519.108 71.8645 516.712 72.2897C514.502 71.8801 512.433 70.9029 510.094 71.1055C507.864 70.8009 506.235 67.7367 503.448 69.7043C501.145 69.4725 498.88 68.861 496.374 69.013C493.862 69.4969 491.235 69.1454 488.907 68.0137C486.321 67.6815 483.931 65.9794 481.063 65.7939C479.938 64.5352 478.372 65.2628 477.149 64.3781C475.441 65.6425 473.942 65.8634 472.712 64.5875C471.434 63.5317 469.268 66.2309 468.143 63.8366C466.658 63.0326 464.859 63.2738 462.979 63.3086C461.028 63.6678 458.879 64.3033 457.21 62.1867C454.463 64.914 453.013 61.1339 450.545 60.9754C447.858 61.8743 445.837 58.9233 442.887 59.242C440.192 58.3588 437.388 56.9786 434.107 56.6403C433.472 56.03 431.713 54.9143 428.626 55.4151C427.85 52.1976 425.496 55.0166 423.848 53.7068C421.609 55.0653 419.795 53.566 417.97 51.3272C417.154 49.7678 416.224 48.5219 415.116 47.9072C414.007 47.2924 412.639 47.6933 411.196 48.2595C408.555 48.2775 406.131 46.6778 403.066 47.5144C401.904 46.2343 400.34 46.6802 398.831 46.7257C397.48 46.0904 396.112 45.4331 394.306 46.6734C392.915 46.0393 390.872 48.2722 389.591 46.9956C387.941 47.4659 386.452 46.9895 384.829 47.109C383.947 46.8869 382.067 50.0387 381.441 46.5523C380.515 44.4149 379.11 43.5544 377.213 43.9765C375.997 45.4259 375.14 45.0687 374.246 44.6862C372.647 47.5134 371.521 47.9889 371.519 43.2377C370.66 42.3781 369.278 43.7153 368.731 41.1496C368.232 38.3638 366.988 38.8121 365.797 38.8983C359.646 40.3866 356.553 36.4098 353.368 34.631C349.85 34.3388 346.391 35.4697 342.493 33.7785C340.142 34.7596 339.23 34.0458 336.642 36.0885C334.71 35.1763 330.552 39.4947 324.876 36.1905C324.712 36.9359 322.705 36.3512 322.153 38.8329C321.246 38.1083 319.607 38.2794 318.133 36.5655C316.659 34.8516 314.248 36.0854 312.055 36.2889C310.058 35.6595 307.953 31.2232 304.452 30.6054C301.687 26.6516 296.726 30.1313 293.317 25.8747C289.517 23.377 285.143 22.7779 281.159 21.4858C277.983 21.3501 275.626 16.3086 271.419 19.1977C267.615 20.245 265.32 14.024 260.852 17.9439C257.645 16.15 253.575 18.5634 250.418 17.8863C246.486 20.7394 243.489 20.4053 241.087 19.1955C237.668 20.1787 234.045 19.0463 229.396 20.4646C224.397 23.4437 220.566 19.0444 215.287 19.9844C210.886 16.9437 204.859 20.0476 199.821 18.3892C194.853 16.414 189.086 17.7451 184.065 16.298C181.83 16.7574 179.639 17.0036 176.736 18.0562C174.639 15.4598 171.302 16.074 166.949 16.4477C167.197 20.1618 165.958 18.5174 163.205 20.6605C160.975 20.464 157.822 21.3671 155.86 22.8795C154.255 22.8745 152.185 23.8629 149.949 24.0594C147.758 24.0856 145.259 23.9761 142.204 24.5247C140.183 21.3034 136.597 22.541 131.939 26.2406C128.161 25.9518 123.475 27.3216 119.17 24.9532C113.999 26.4556 108.771 26.0678 103.961 21.9285C97.7768 24.0022 91.9966 22.3609 86.3582 18.4486C82.0152 16.3637 75.7901 19.8018 70.8274 17.2482C65.355 17.0209 59.5341 18.0959 54.8178 16.645C49.7009 17.0168 45.7028 14.8187 41.986 16.5717C38.1392 18.9175 36.3946 16.9429 35.9956 16.9661C31.3282 17.6565 26.5556 17.5669 21.8787 16.701C17.1343 21.5644 15.3569 16.7532 12.1904 18.9095C9.55567 18.6696 6.33094 21.7665 3.40754 21.147C0.317147 21.2649 -3.60165 22.7491 -7.99692 20.9685C-12.5976 24.7932 -15.8013 20.0258 -20.1289 19.5425C-24.3286 18.5085 -28.9034 18.282 -32.8298 15.8369C-37.3531 16.0977 -41.3692 14.7271 -45.0646 14.0309C-55.9447 12.2661 -62.023 11.8272 -65.877 12.0822C-70.1454 14.2274 -71.468 13.8324 -72.9752 12.7233C-74.3765 11.1605 -76.7362 12.395 -81.6604 11.4196C-87.2327 10.9558 -90.9244 7.57973 -94.9892 7.89666C-98.6163 6.27317 -102.161 6.33184 -106.071 6.56223C-110.053 7.10125 -114.157 6.70883 -119.59 7.27202C-132.672 6.25769 -162.841 1.99505 -161.787 1.0057C-173.145 -1.24721 -181.87 4.00487 -171.089 5.98524C-173.522 6.15692 -175.72 15.8458 -190.232 18.3933C-199.734 24.3132 -203.053 30.6275 -206.075 34.422C-209.346 39.9485 -209.876 45.4428 -205.479 50.275C-201.082 55.1071 -68.0936 357.72 -51.6288 360.595L1486.17 352.163C1486.17 352.163 1497.08 302.771 1506.78 258.871C1508.73 250.09 1510.62 241.529 1512.36 233.627C1506.91 221.279 1512.9 217.829 1517.06 212.332C1517.7 211.511 1518.33 211.263 1519.48 207.971C1520.41 205.66 1521.27 202.948 1521.33 201.981C1522.04 198.076 1520.96 200.352 1520.31 197.621C1519.33 196.179 1520.55 195.525 1521.94 193.12C1522.93 192.456 1523.62 192.29 1521.51 192.072Z" fill="white"/>
</svg>